<?xml version="1.0" standalone="no"?>
<!DOCTYPE svg PUBLIC "-//W3C//DTD SVG 20010904//EN"
 "http://www.w3.org/TR/2001/REC-SVG-20010904/DTD/svg10.dtd">
<svg version="1.0" xmlns="http://www.w3.org/2000/svg"
 width="195.000000pt" height="161.000000pt" viewBox="0 0 195.000000 161.000000"
 preserveAspectRatio="xMidYMid meet">
<metadata>
Created by potrace 1.10, written by Peter Selinger 2001-2011
</metadata>
<g transform="translate(0.000000,161.000000) scale(0.100000,-0.100000)"
fill="#f3f3f3" stroke="none">
<path d="M345 1383 c36 -87 86 -137 184 -187 49 -26 35 2 -20 39 -32 22 -39
31 -27 33 45 9 245 -121 216 -140 -24 -15 -53 -8 -148 35 -100 45 -163 84
-242 150 -27 21 -48 36 -48 32 0 -17 25 -53 58 -83 l37 -32 -45 6 c-62 9 -135
38 -203 78 l-57 34 16 -36 c45 -108 154 -184 311 -217 104 -22 128 -17 41 9
-76 23 -184 72 -194 88 -10 15 124 8 199 -11 42 -11 109 -35 149 -54 72 -33
252 -160 262 -184 7 -17 1 -16 -16 0 -27 27 -105 66 -183 92 -63 21 -109 29
-215 34 -104 6 -146 12 -183 29 l-48 21 18 -30 c23 -40 73 -83 126 -111 32
-16 63 -22 132 -25 96 -3 91 6 -18 27 -63 13 -66 24 -8 40 63 17 251 -26 251
-58 0 -30 34 -112 45 -109 5 2 11 20 13 40 2 20 7 37 11 37 4 0 26 -13 48 -29
53 -38 103 -64 103 -52 0 4 -7 14 -15 21 -22 18 -18 32 5 20 26 -14 25 -8 -4
38 -27 44 -80 101 -115 124 -24 17 -21 38 5 38 27 0 14 28 -35 72 -30 27 -105
72 -193 115 -82 41 -159 87 -180 107 -20 20 -40 36 -43 36 -3 0 2 -17 10 -37z
m395 -278 c0 -8 -7 -15 -15 -15 -16 0 -20 12 -8 23 11 12 23 8 23 -8z"/>
<path d="M1580 1389 c-19 -17 -78 -51 -130 -75 -127 -60 -187 -100 -221 -147
-16 -22 -29 -43 -29 -47 0 -3 15 -5 33 -2 31 4 28 1 -59 -89 -84 -87 -133
-154 -120 -166 2 -3 15 2 28 11 30 21 41 20 33 -4 -12 -37 37 -19 93 33 25 25
32 27 32 13 0 -9 -7 -31 -16 -49 l-17 -32 23 20 c12 11 35 45 51 76 17 35 41
65 62 78 44 27 139 51 202 51 l50 -1 -23 -19 c-12 -10 -47 -24 -77 -30 -74
-15 -70 -24 6 -16 104 12 210 67 257 133 l21 29 -47 -23 c-36 -18 -75 -25
-172 -32 -86 -6 -142 -16 -180 -31 -78 -31 -200 -108 -194 -124 7 -19 -34 -52
-48 -38 -15 15 -2 43 22 49 11 3 22 14 25 24 11 32 97 99 181 140 84 41 227
82 324 93 l55 7 -22 -19 c-12 -11 -53 -28 -90 -37 -78 -21 -105 -37 -47 -29
112 17 195 60 254 135 45 57 56 97 18 62 -13 -11 -39 -29 -58 -38 -38 -20
-150 -56 -150 -49 0 2 14 23 30 46 17 22 30 53 29 67 l0 26 -17 -25 c-46 -68
-107 -108 -274 -179 -104 -43 -118 -47 -118 -30 0 35 58 86 133 117 39 17 74
28 77 26 2 -3 -13 -21 -35 -40 -39 -34 -39 -35 -8 -19 47 22 102 74 135 124
44 70 36 80 -22 30z"/>
<path d="M842 1278 c-18 -18 -15 -28 9 -28 13 0 25 -11 35 -35 19 -47 18 -93
-5 -138 -21 -42 -10 -50 15 -11 20 30 23 128 5 162 -14 26 -10 27 29 7 17 -9
30 -22 30 -30 0 -8 5 -15 11 -15 5 0 7 5 4 10 -16 26 20 5 76 -45 95 -85 106
-66 14 23 -62 60 -92 82 -132 95 -61 20 -75 21 -91 5z"/>
<path d="M1008 1103 c20 -28 77 -62 87 -51 3 3 -14 18 -38 35 -66 47 -73 49
-49 16z"/>
<path d="M1360 962 c0 -12 33 -29 70 -37 19 -4 39 -10 45 -13 12 -8 -29 -19
-75 -22 -29 -1 -32 -3 -15 -10 53 -23 130 -2 203 53 l33 25 -99 -5 c-61 -4
-112 -2 -131 5 -17 6 -31 8 -31 4z"/>
<path d="M565 925 c-76 -26 -129 -31 -169 -15 -60 22 -8 -30 56 -58 46 -19
120 -25 153 -11 l30 13 -30 3 c-109 12 -114 20 -28 47 28 10 57 24 63 32 16
18 10 17 -75 -11z"/>
<path d="M1320 871 c0 -5 14 -21 30 -34 33 -29 37 -37 16 -37 -8 0 -18 -5 -22
-11 -10 -17 115 -6 151 14 l30 15 -59 7 c-32 4 -78 18 -102 31 -24 13 -44 19
-44 15z"/>
<path d="M641 834 c-39 -27 -105 -48 -132 -41 -31 8 -21 -10 12 -23 17 -8 58
-13 90 -13 32 0 59 -2 59 -4 0 -2 -21 -17 -46 -33 l-46 -29 36 -6 c40 -8 102
1 111 15 4 6 -8 10 -26 10 l-33 0 29 30 c27 28 29 54 3 33 -15 -12 -98 -5 -98
8 0 5 5 9 12 9 15 0 78 49 78 61 0 14 -11 10 -49 -17z"/>
<path d="M1290 786 c0 -8 12 -27 27 -41 l28 -25 -38 0 c-23 0 -36 -4 -32 -10
7 -12 155 -14 155 -2 0 5 -19 18 -42 28 -23 10 -55 30 -70 42 -22 19 -28 20
-28 8z"/>
<path d="M1507 706 c-77 -32 -98 -47 -143 -102 -87 -105 -109 -124 -148 -124
-40 0 -56 20 -36 45 16 20 5 19 -26 -1 -34 -23 -54 -65 -54 -114 0 -42 -25
-110 -41 -110 -4 0 -11 5 -14 10 -10 17 -25 11 -25 -9 0 -11 -9 -23 -20 -26
-24 -8 -50 10 -50 33 0 12 -3 13 -12 4 -7 -7 -15 -12 -20 -12 -14 0 -38 59
-38 95 0 50 -23 98 -58 124 -32 23 -54 29 -34 9 7 -7 12 -20 12 -30 0 -14 -8
-18 -41 -18 -45 0 -69 20 -151 122 -38 47 -126 99 -193 114 -27 6 -24 3 19
-27 59 -41 92 -93 82 -132 -12 -50 -86 -45 -137 9 -33 35 -42 30 -36 -17 6
-49 59 -109 115 -132 92 -37 92 -37 4 -34 -79 2 -85 4 -109 32 -24 28 -26 28
-39 10 -34 -46 0 -93 105 -144 57 -27 76 -41 76 -56 0 -29 -53 -31 -111 -5
-26 11 -49 18 -52 15 -3 -2 1 -18 8 -35 15 -37 80 -92 141 -119 56 -26 83 -27
43 -1 -36 24 -59 62 -50 86 6 14 9 13 31 -10 23 -25 75 -37 75 -16 0 5 -16 30
-35 56 -19 25 -35 51 -35 59 0 12 28 42 33 34 1 -2 9 -17 17 -34 12 -22 24
-31 48 -33 27 -3 32 0 32 17 0 12 -11 26 -29 36 -16 8 -36 22 -45 31 -20 19
-9 37 38 61 l30 16 -47 39 c-51 44 -58 65 -27 93 19 17 20 17 20 -1 0 -11 20
-34 47 -54 28 -21 50 -46 54 -64 10 -37 45 -75 86 -92 34 -15 66 -9 60 10 -3
10 -58 55 -103 83 -22 14 83 -19 115 -36 12 -7 28 -23 37 -36 15 -23 15 -28 0
-66 -9 -23 -14 -51 -11 -63 5 -18 3 -17 -9 4 -8 14 -29 34 -47 44 l-33 20 22
-28 c30 -39 28 -56 -7 -56 -43 0 -60 9 -77 42 -10 19 -13 40 -8 61 l6 32 -26
-24 c-36 -34 -33 -55 20 -111 53 -57 53 -80 0 -80 -25 0 -46 9 -72 32 -36 31
-37 32 -29 8 11 -36 33 -58 90 -91 61 -35 75 -36 75 -5 0 14 15 40 35 62 21
22 35 47 35 62 0 53 10 12 14 -57 3 -40 7 -75 10 -78 3 -3 13 0 22 8 21 17
197 17 218 0 18 -15 26 -3 24 41 -1 19 2 40 5 45 4 6 0 13 -8 17 -9 3 -15 17
-14 33 1 21 3 23 6 8 3 -11 25 -41 50 -67 30 -31 46 -55 46 -72 0 -33 10 -33
72 3 61 35 81 57 90 96 l7 30 -24 -27 c-41 -46 -94 -62 -117 -34 -10 11 -3 25
34 66 51 58 56 92 18 117 -22 14 -22 14 -16 -20 3 -19 0 -44 -7 -56 -14 -26
-72 -54 -94 -45 -20 8 -21 38 -1 54 9 7 13 15 10 18 -3 3 -17 -5 -31 -19 -29
-27 -36 -22 -56 44 -11 35 -9 39 17 67 15 16 54 38 86 49 33 11 59 18 59 17 0
-2 -25 -20 -55 -40 -64 -42 -72 -66 -20 -66 42 0 100 52 110 100 5 22 21 41
51 63 41 29 49 39 45 60 -3 16 22 1 37 -21 14 -22 13 -25 -32 -67 -26 -24 -45
-48 -42 -53 3 -5 19 -15 36 -22 42 -17 39 -44 -10 -75 -22 -14 -40 -32 -40
-40 0 -39 62 -28 82 15 14 33 32 39 42 14 6 -16 -14 -63 -45 -103 -35 -44 1
-56 49 -16 37 31 42 31 42 1 0 -16 -14 -36 -42 -60 -23 -20 -39 -36 -35 -36
22 0 121 54 155 84 38 35 71 91 59 102 -3 3 -23 -4 -46 -15 -41 -22 -105 -28
-115 -12 -13 21 9 42 76 72 38 18 78 44 89 57 20 27 25 68 9 92 -8 13 -13 11
-32 -12 -25 -28 -80 -48 -139 -48 -56 0 -54 11 7 36 62 25 98 54 120 96 16 31
19 88 4 88 -5 0 -10 -4 -10 -10 0 -21 -78 -61 -111 -58 -76 7 -56 103 35 164
59 40 53 42 -27 10z m-87 -119 c0 -7 -13 -23 -30 -35 -35 -26 -38 -21 -9 19
22 31 39 38 39 16z m-819 -39 c10 -18 9 -19 -20 -4 -20 11 -28 21 -24 31 6 18
27 5 44 -27z m-90 -91 c6 -24 5 -25 -21 -15 -15 5 -35 17 -43 26 -14 16 -13
17 21 16 30 -1 37 -5 43 -27z m1020 19 c-15 -18 -71 -38 -71 -26 0 28 15 40
47 40 30 0 33 -2 24 -14z m-691 -53 c0 -12 -7 -14 -32 -8 -18 4 -45 7 -59 6
-15 -1 -32 6 -40 15 -11 14 -9 15 22 9 19 -3 45 -2 59 3 28 11 50 -1 50 -25z
m369 17 c9 -5 4 -11 -19 -19 -44 -15 -50 -14 -50 7 0 33 23 37 69 12z m61 1
c0 -5 -9 -11 -20 -14 -20 -5 -26 3 -13 16 9 10 33 8 33 -2z m-750 -109 c0 -34
-19 -41 -66 -25 -24 8 -44 19 -44 23 0 5 19 11 43 13 23 2 48 4 55 5 6 1 12
-6 12 -16z m1055 9 c-3 -5 -26 -17 -51 -27 -39 -15 -47 -15 -55 -3 -20 32 -10
39 52 39 34 0 58 -4 54 -9z m-625 -95 c0 -19 -29 -48 -41 -40 -5 3 -8 8 -6 12
2 4 7 15 10 25 8 20 37 23 37 3z m120 -6 c16 -30 2 -45 -21 -24 -10 9 -19 23
-19 31 0 20 28 16 40 -7z m-68 -27 c30 -33 58 -74 58 -85 0 -5 -8 -8 -17 -9
-11 0 -13 -3 -5 -6 18 -7 15 -33 -5 -34 -66 -4 -117 10 -100 27 3 3 21 10 39
15 31 8 30 8 -10 5 l-43 -4 17 26 c9 15 26 37 37 50 18 20 17 27 -5 23 -5 0
-8 4 -8 9 0 17 15 11 42 -17z m102 5 c-5 -7 -7 -25 -6 -41 2 -17 -2 -26 -8
-22 -5 3 -10 13 -10 20 0 10 -6 12 -17 8 -10 -4 -4 5 12 20 34 29 40 33 29 15z
m-198 -54 c-11 -12 -26 -20 -33 -17 -17 7 -16 18 1 33 8 6 12 19 9 28 -6 13
-3 13 18 -3 l24 -18 -19 -23z"/>
<path d="M1230 701 c0 -6 9 -15 20 -21 26 -14 26 -30 -1 -30 -11 0 -17 -4 -14
-10 3 -5 30 -10 58 -10 l52 1 -27 22 c-42 34 -88 59 -88 48z"/>
<path d="M716 670 c-22 -17 -48 -30 -58 -30 -11 0 -16 -4 -13 -10 7 -12 105
-14 132 -3 14 6 11 9 -15 13 l-34 5 22 28 c28 35 15 34 -34 -3z"/>
</g>
</svg>
